<svg xmlns="http://www.w3.org/2000/svg" width="64" height="64" viewBox="0 0 64 64"><title>calendar</title><line x1="4.16" y1="19.18" x2="59.92" y2="19.18" fill="none" stroke="currentColor" stroke-miterlimit="10" stroke-width="3"/><line x1="19.89" y1="0.11" x2="19.89" y2="13.1" fill="none" stroke="currentColor" stroke-miterlimit="10" stroke-width="3"/><line x1="44.76" y1="0.11" x2="44.76" y2="13.1" fill="none" stroke="currentColor" stroke-miterlimit="10" stroke-width="3"/><rect x="4.16" y="6.6" width="55.75" height="55.75" fill="none" stroke="currentColor" stroke-miterlimit="10" stroke-width="3"/><line x1="14.46" y1="28.1" x2="14.46" y2="31.21" fill="none" stroke="currentColor" stroke-miterlimit="10" stroke-width="3"/><line x1="26.23" y1="28.1" x2="26.23" y2="31.21" fill="none" stroke="currentColor" stroke-miterlimit="10" stroke-width="3"/><line x1="38" y1="28.1" x2="38" y2="31.21" fill="none" stroke="currentColor" stroke-miterlimit="10" stroke-width="3"/><line x1="49.78" y1="28.1" x2="49.78" y2="31.21" fill="none" stroke="currentColor" stroke-miterlimit="10" stroke-width="3"/><line x1="14.46" y1="38.91" x2="14.46" y2="42.02" fill="none" stroke="currentColor" stroke-miterlimit="10" stroke-width="3"/><line x1="26.23" y1="38.91" x2="26.23" y2="42.02" fill="none" stroke="currentColor" stroke-miterlimit="10" stroke-width="3"/><line x1="38" y1="38.91" x2="38" y2="42.02" fill="none" stroke="currentColor" stroke-miterlimit="10" stroke-width="3"/><line x1="49.78" y1="38.91" x2="49.78" y2="42.02" fill="none" stroke="currentColor" stroke-miterlimit="10" stroke-width="3"/><line x1="14.46" y1="49.72" x2="14.46" y2="52.83" fill="none" stroke="currentColor" stroke-miterlimit="10" stroke-width="3"/><line x1="26.23" y1="49.72" x2="26.23" y2="52.83" fill="none" stroke="currentColor" stroke-miterlimit="10" stroke-width="3"/><line x1="38" y1="49.72" x2="38" y2="52.83" fill="none" stroke="currentColor" stroke-miterlimit="10" stroke-width="3"/></svg>