<svg xmlns="http://www.w3.org/2000/svg" width="64" height="64" viewBox="0 0 64 64"><title>hide</title><line x1="54.27" y1="9.73" x2="9.75" y2="54.24" fill="none" stroke="currentColor" stroke-miterlimit="10" stroke-width="4"/><path d="M26,46.44A31.64,31.64,0,0,0,31.9,47C42.65,47,53,41.64,61.11,31.91a50.81,50.81,0,0,0-11.05-9.51" fill="none" stroke="currentColor" stroke-linecap="round" stroke-miterlimit="10" stroke-width="4" fill-rule="evenodd"/><path d="M38,17.54A30.88,30.88,0,0,0,32.19,17C21.78,17,11.67,22.14,2.91,31.9a46.33,46.33,0,0,0,11,9.72" fill="none" stroke="currentColor" stroke-linecap="round" stroke-miterlimit="10" stroke-width="4" fill-rule="evenodd"/><path d="M31.14,24.41a8,8,0,0,0-6.9,6.9" fill="none" stroke="currentColor" stroke-linecap="round" stroke-miterlimit="10" stroke-width="4" fill-rule="evenodd"/><path d="M32.93,39.52a8.2,8.2,0,0,0,7-7" fill="none" stroke="currentColor" stroke-linecap="round" stroke-miterlimit="10" stroke-width="4" fill-rule="evenodd"/></svg>