<svg xmlns="http://www.w3.org/2000/svg" width="64" height="64" viewBox="0 0 64 64"><title>instagram</title><path d="M45.53,0H18.48A18.47,18.47,0,0,0,0,18.49V45.55A18.47,18.47,0,0,0,18.48,64H45.53A18.47,18.47,0,0,0,64,45.55V18.49A18.47,18.47,0,0,0,45.53,0ZM58.11,46A12.26,12.26,0,0,1,45.85,58.29H18.16A12.26,12.26,0,0,1,5.9,46V18.34A12.26,12.26,0,0,1,18.16,6.07H45.85A12.26,12.26,0,0,1,58.11,18.34Z" fill="currentColor"/><path d="M32,15.57A16.61,16.61,0,1,0,48.61,32.18,16.61,16.61,0,0,0,32,15.57Zm0,27.37A10.76,10.76,0,1,1,42.77,32.18,10.76,10.76,0,0,1,32,42.94Z" fill="currentColor"/><circle cx="49.17" cy="14.94" r="3.87" fill="currentColor"/></svg>