<svg xmlns="http://www.w3.org/2000/svg" width="64" height="64" viewBox="0 0 64 64"><title>link</title><path d="M31.81,16l9.14-9.14A9.24,9.24,0,0,1,54,6.88l2.61,2.61a9.24,9.24,0,0,1,0,13.06L42.26,36.92a9.24,9.24,0,0,1-13.06,0l-2.61-2.61" fill="none" stroke="currentColor" stroke-miterlimit="10" stroke-width="5"/><path d="M31.81,47.37l-9.14,9.14a9.24,9.24,0,0,1-13.06,0L7,53.9A9.24,9.24,0,0,1,7,40.84L21.36,26.47a9.24,9.24,0,0,1,13.06,0L37,29.09" fill="none" stroke="currentColor" stroke-miterlimit="10" stroke-width="5"/></svg>