<svg xmlns="http://www.w3.org/2000/svg" width="64" height="64" viewBox="0 0 64 64"><title>map-pin</title><path d="M32,16.8h0A6.11,6.11,0,0,1,38.27,23a6.1,6.1,0,0,1-6.19,6.23H32A6.1,6.1,0,0,1,25.83,23,6.11,6.11,0,0,1,32,16.8Z" fill="none" stroke="currentColor" stroke-miterlimit="10" stroke-width="4.05"/><path d="M32.05,2.28A20.86,20.86,0,0,1,52.79,23a19.93,19.93,0,0,1-3.55,12.35c-2.81,4.43-17.2,25-17.2,25s-14.38-20.56-17.2-25A19.93,19.93,0,0,1,11.31,23,20.86,20.86,0,0,1,32.05,2.28Z" fill="none" stroke="currentColor" stroke-miterlimit="10" stroke-width="4.05"/></svg>