<svg xmlns="http://www.w3.org/2000/svg" width="64" height="64" viewBox="0 0 64 64"><title>quote</title><path d="M7,61.91q-7-11.38-7-23A40.15,40.15,0,0,1,5.18,19.29a57.71,57.71,0,0,1,15-17.18l7.9,4.82a3.53,3.53,0,0,1,1.44,1.49A4,4,0,0,1,30,10.11a3.91,3.91,0,0,1-.41,1.75,8,8,0,0,1-.92,1.43c-.89,1-1.83,2.22-2.82,3.59a33.31,33.31,0,0,0-2.72,4.46,28.81,28.81,0,0,0-2,5.29,22.13,22.13,0,0,0-.83,6.15,27.3,27.3,0,0,0,1.13,7.44,33,33,0,0,0,3.8,8.25,5.34,5.34,0,0,1,.92,2.87q0,3.29-3.69,4.62Zm34,0q-7-11.38-7-23a40.15,40.15,0,0,1,5.18-19.64,57.61,57.61,0,0,1,15-17.18l7.89,4.82A3.47,3.47,0,0,1,63.51,8.4,4,4,0,0,1,64,10.11a3.91,3.91,0,0,1-.41,1.75,7.48,7.48,0,0,1-.92,1.43c-.89,1-1.83,2.22-2.82,3.59a33.31,33.31,0,0,0-2.72,4.46,28.81,28.81,0,0,0-2,5.29,22.14,22.14,0,0,0-.82,6.15,27.27,27.27,0,0,0,1.12,7.44,33.35,33.35,0,0,0,3.8,8.25,5.25,5.25,0,0,1,.92,2.87q0,3.29-3.69,4.62Z" fill="currentColor"/></svg>