<svg xmlns="http://www.w3.org/2000/svg" width="64" height="64" viewBox="0 0 64 64"><title>safe-payment</title><path d="M53.84,46.09h4.33a4.15,4.15,0,0,0,4.12-4.24V9.44a4.12,4.12,0,0,0-4.12-4.21H6A4.3,4.3,0,0,0,1.71,9.44v32.4A4.33,4.33,0,0,0,6,46.09H31.3" fill="none" stroke="currentColor" stroke-miterlimit="10" stroke-width="2.82"/><line x1="1.71" y1="12.28" x2="62.29" y2="12.28" fill="none" stroke="currentColor" stroke-miterlimit="10" stroke-width="2.82"/><line x1="1.71" y1="20.73" x2="62.29" y2="20.73" fill="none" stroke="currentColor" stroke-miterlimit="10" stroke-width="2.82"/><rect x="31.3" y="40.45" width="22.54" height="18.31" rx="1" ry="1" fill="none" stroke="currentColor" stroke-miterlimit="10" stroke-width="2.82"/><path d="M35.52,33.41a7,7,0,1,1,14.09,0v7H35.52Z" fill="none" stroke="currentColor" stroke-miterlimit="10" stroke-width="2.82"/><line x1="5.94" y1="26.36" x2="14.39" y2="26.36" fill="none" stroke="currentColor" stroke-miterlimit="10" stroke-width="2.82"/><line x1="17.21" y1="26.36" x2="25.66" y2="26.36" fill="none" stroke="currentColor" stroke-miterlimit="10" stroke-width="2.82"/></svg>