<svg xmlns="http://www.w3.org/2000/svg" width="64" height="64" viewBox="0 0 64 64"><title>show</title><path d="M31.89,47C21.31,47,11,41.65,2.9,31.91,11.66,22.15,21.78,17,32.18,17S52.45,22.15,61.1,31.92C53,41.65,42.64,47,31.89,47Z" fill="none" stroke="currentColor" stroke-linecap="round" stroke-miterlimit="10" stroke-width="4" fill-rule="evenodd"/><path d="M32,25.4a7.06,7.06,0,0,1,4.9,2.17,6.44,6.44,0,0,1,2,4.59c-.08,3.31-3.31,6.37-6.85,6.41a6.91,6.91,0,0,1-4.84-2,6.37,6.37,0,0,1-1.94-4.65,6.89,6.89,0,0,1,6.66-6.48" fill="none" stroke="currentColor" stroke-linecap="round" stroke-miterlimit="10" stroke-width="4" fill-rule="evenodd"/></svg>