<svg xmlns="http://www.w3.org/2000/svg" width="64" height="64" viewBox="0 0 64 64"><title>twitter</title><path d="M57.42,19v1.71C57.47,38,44.26,58,20.15,58A37.06,37.06,0,0,1,0,52.1a27.32,27.32,0,0,0,3.17.16,26.28,26.28,0,0,0,16.29-5.6,13.14,13.14,0,0,1-12.26-9.1,16.38,16.38,0,0,0,2.48.2,13.87,13.87,0,0,0,3.45-.45A13.12,13.12,0,0,1,2.61,24.45v-.16A13.19,13.19,0,0,0,8.54,26,13.13,13.13,0,0,1,4.47,8.41a37.28,37.28,0,0,0,27,13.73,14.93,14.93,0,0,1-.32-3,13.13,13.13,0,0,1,22.7-9A25.8,25.8,0,0,0,62.22,7a13.08,13.08,0,0,1-5.77,7.23,26.26,26.26,0,0,0,7.55-2A28.21,28.21,0,0,1,57.42,19Z" fill="currentColor"/></svg>