<svg xmlns="http://www.w3.org/2000/svg" width="64" height="64" viewBox="0 0 64 64"><title>vimeo</title><path d="M50.92,42.68c-8.73,11.29-16,17-22.1,17-3.74,0-6.88-3.46-9.44-10.34q-2.59-9.43-5.19-19c-1.88-6.88-4-10.3-6.17-10.3-.47,0-2.12,1-5,3L0,19.23c3.15-2.79,6.25-5.62,9.36-8.33,4.17-3.7,7.35-5.54,9.47-5.74,5-.47,8,2.91,9.2,10.18,1.22,7.87,2.13,12.78,2.6,14.67,1.45,6.52,3,9.79,4.72,9.79,1.33,0,3.34-2.09,6-6.33S45.46,26,45.66,23.8c.35-3.66-1.06-5.47-4.29-5.47a12.68,12.68,0,0,0-4.76,1q4.73-15.45,18-15c6.56.2,9.67,4.49,9.28,12.82Q63.55,26.41,50.92,42.68Z" fill="currentColor"/></svg>