<svg xmlns="http://www.w3.org/2000/svg" width="64" height="64" viewBox="0 0 64 64"><title>youtube</title><path d="M62.88,47.48A8.1,8.1,0,0,1,56,53.94a215.18,215.18,0,0,1-24,.89,215,215,0,0,1-24-.89,8.18,8.18,0,0,1-6.93-6.46c-1-5-1-10.42-1-15.5s0-10.54,1.15-15.5a8.15,8.15,0,0,1,6.89-6.42,215,215,0,0,1,24-.89,215.18,215.18,0,0,1,24,.89,8.22,8.22,0,0,1,6.82,6.42C64,21.48,64,26.87,64,32S64,42.51,62.88,47.48ZM44.67,30.06,26.38,18.62a2.27,2.27,0,0,0-2.32-.07,2.3,2.3,0,0,0-1.18,2V43.41a2.31,2.31,0,0,0,1.18,2,2.53,2.53,0,0,0,1.11.28,2.12,2.12,0,0,0,1.21-.36L44.67,33.91a2.27,2.27,0,0,0,0-3.85Z" fill="currentColor"/></svg>